
<svg xmlns="http://www.w3.org/2000/svg" width="195" height="195" viewBox="0 0 195 195">
  <g id="Group_3246" data-name="Group 3246" transform="translate(-101 -268)">
    <g id="Path_6882" data-name="Path 6882" transform="translate(101 268)" fill="none">
      <path d="M97.5,0A97.5,97.5,0,1,1,0,97.5,97.5,97.5,0,0,1,97.5,0Z" stroke="none"/>
      <path d="M 97.49997711181641 2 C 91.01911163330078 2 84.54292297363281 2.652786254882812 78.25128936767578 3.940261840820312 C 72.12055969238281 5.194793701171875 66.09019470214844 7.06671142578125 60.32768249511719 9.504058837890625 C 54.66937255859375 11.89732360839844 49.21174621582031 14.85963439941406 44.10643005371094 18.3087158203125 C 39.04910278320312 21.72537231445312 34.29336547851562 25.64924621582031 29.97129821777344 29.97129821777344 C 25.64924621582031 34.29336547851562 21.72537231445312 39.04910278320312 18.3087158203125 44.10643005371094 C 14.85963439941406 49.21174621582031 11.89732360839844 54.66937255859375 9.504058837890625 60.32768249511719 C 7.06671142578125 66.09019470214844 5.194793701171875 72.12055969238281 3.940261840820312 78.25128936767578 C 2.652786254882812 84.54292297363281 2 91.01911163330078 2 97.49997711181641 C 2 103.980842590332 2.652786254882812 110.45703125 3.940261840820312 116.7486877441406 C 5.194793701171875 122.87939453125 7.06671142578125 128.9097595214844 9.504058837890625 134.6722717285156 C 11.89732360839844 140.3306121826172 14.85963439941406 145.7882080078125 18.3087158203125 150.8935241699219 C 21.72537231445312 155.9508361816406 25.64924621582031 160.7065734863281 29.97129821777344 165.0286560058594 C 34.29336547851562 169.3507385253906 39.04910278320312 173.2745819091797 44.10643005371094 176.6912384033203 C 49.21174621582031 180.1403198242188 54.66937255859375 183.1026306152344 60.32768249511719 185.4959259033203 C 66.09019470214844 187.9332427978516 72.12055969238281 189.8051605224609 78.25128936767578 191.0597076416016 C 84.54292297363281 192.34716796875 91.01911163330078 192.9999542236328 97.49997711181641 192.9999542236328 C 103.980842590332 192.9999542236328 110.45703125 192.34716796875 116.7486877441406 191.0597076416016 C 122.87939453125 189.8051605224609 128.9097595214844 187.9332427978516 134.6722717285156 185.4959259033203 C 140.3306121826172 183.1026306152344 145.7882080078125 180.1403198242188 150.8935241699219 176.6912384033203 C 155.9508361816406 173.2745819091797 160.7065734863281 169.3507385253906 165.0286560058594 165.0286560058594 C 169.3507385253906 160.7065734863281 173.2745819091797 155.9508361816406 176.6912384033203 150.8935241699219 C 180.1403198242188 145.7882080078125 183.1026306152344 140.3306121826172 185.4959259033203 134.6722717285156 C 187.9332427978516 128.9097595214844 189.8051605224609 122.87939453125 191.0597076416016 116.7486877441406 C 192.34716796875 110.45703125 192.9999542236328 103.980842590332 192.9999542236328 97.49997711181641 C 192.9999542236328 91.01911163330078 192.34716796875 84.54292297363281 191.0597076416016 78.25128936767578 C 189.8051605224609 72.12055969238281 187.9332427978516 66.09019470214844 185.4959259033203 60.32768249511719 C 183.1026306152344 54.66937255859375 180.1403198242188 49.21174621582031 176.6912384033203 44.10643005371094 C 173.2745819091797 39.04910278320312 169.3507385253906 34.29336547851562 165.0286560058594 29.97129821777344 C 160.7065734863281 25.64924621582031 155.9508361816406 21.72537231445312 150.8935241699219 18.3087158203125 C 145.7882080078125 14.85963439941406 140.3306121826172 11.89732360839844 134.6722717285156 9.504058837890625 C 128.9097595214844 7.06671142578125 122.87939453125 5.194793701171875 116.7486877441406 3.940261840820312 C 110.45703125 2.652786254882812 103.980842590332 2 97.49997711181641 2 M 97.49997711181641 0 C 151.3477478027344 0 194.9999542236328 43.65223693847656 194.9999542236328 97.49997711181641 C 194.9999542236328 151.3477478027344 151.3477478027344 194.9999542236328 97.49997711181641 194.9999542236328 C 43.65223693847656 194.9999542236328 0 151.3477478027344 0 97.49997711181641 C 0 43.65223693847656 43.65223693847656 0 97.49997711181641 0 Z" stroke="none" fill="#ffb300"/>
    </g>
    <path id="Subtraction_46" data-name="Subtraction 46" d="M-17491.687-11991.371a81.8,81.8,0,0,1-32.037-6.466,82.452,82.452,0,0,1-13.986-7.59,83.449,83.449,0,0,1-12.182-10.052,83.047,83.047,0,0,1-10.047-12.182,82.159,82.159,0,0,1-7.592-13.986,81.75,81.75,0,0,1-6.469-32.042,81.742,81.742,0,0,1,6.469-32.038,82.118,82.118,0,0,1,7.592-13.98,82.673,82.673,0,0,1,10.047-12.187,83.3,83.3,0,0,1,12.182-10.047,82.554,82.554,0,0,1,13.986-7.591,81.826,81.826,0,0,1,32.037-6.47,81.826,81.826,0,0,1,32.037,6.47,82.479,82.479,0,0,1,13.986,7.591,83.3,83.3,0,0,1,12.182,10.047,82.673,82.673,0,0,1,10.047,12.187,82.13,82.13,0,0,1,7.592,13.98,81.742,81.742,0,0,1,6.469,32.038,81.75,81.75,0,0,1-6.469,32.042,82.159,82.159,0,0,1-7.592,13.986,83.047,83.047,0,0,1-10.047,12.182,83.449,83.449,0,0,1-12.182,10.052,82.452,82.452,0,0,1-13.986,7.59A81.8,81.8,0,0,1-17491.687-11991.371Zm15.238-60.234h0l2.311,9.338-3.187.6.4,2.263,4.3-.843a8.862,8.862,0,0,0,2.818-1,5.126,5.126,0,0,0,1.719-1.632,6.583,6.583,0,0,0,.891-2.258,18.556,18.556,0,0,0,.342-2.9c.047-1.208.07-2.409.07-3.568h-2.863v.622c0,.956,0,1.781-.008,2.536a23.536,23.536,0,0,1-.129,2.413,6.614,6.614,0,0,1-.424,1.737,2.656,2.656,0,0,1-.891,1.143,2.824,2.824,0,0,1-.424.251l-2.025-8.7Zm-38.119,0h0l2.311,9.338-3.189.6.4,2.263,4.3-.843a8.844,8.844,0,0,0,2.822-1,5.151,5.151,0,0,0,1.721-1.632,6.655,6.655,0,0,0,.885-2.258,17.084,17.084,0,0,0,.346-2.9c.045-1.078.066-2.278.066-3.568h-2.857c0,.569,0,1.111,0,1.62,0,.368,0,.72,0,1.053l0,.485a21.172,21.172,0,0,1-.133,2.413,6.226,6.226,0,0,1-.418,1.737,2.675,2.675,0,0,1-.887,1.143,2.861,2.861,0,0,1-.428.251l-2.025-8.7Zm54.6,0h0l.26,2.18,1.1,9.438a19.15,19.15,0,0,0,3.764-.449,8.915,8.915,0,0,0,2.871-1.169,5.07,5.07,0,0,0,1.8-2.051,6.738,6.738,0,0,0,.547-3.127l-.018-.662a4.453,4.453,0,0,0-1.129-3.038,4.035,4.035,0,0,0-3.053-1.121Zm-67.545,2.166h0l3.2.014-3.6,9.239h2.9l3.6-9.041-.018-2.359-6.09-.014-.01-2.924h-2.58l.01,2.919h-.01l.018,2.157,2.58.022,0-.013Zm79.6,7.092h0v2.161h5.82v-8.018a3.8,3.8,0,0,0-.639-2.271,2.611,2.611,0,0,0-1.879-1.05l-2.5-.322-.361,2.144,1.4.177a1.309,1.309,0,0,1,.813.353,1.467,1.467,0,0,1,.291,1.05v5.777Zm-34.721-7.078a1.392,1.392,0,0,1,.992.33,1.46,1.46,0,0,1,.35,1.107v7.8h2.9v-7.661a4.493,4.493,0,0,0-.455-2.179,2.709,2.709,0,0,0-1.23-1.2,3.968,3.968,0,0,0-1.777-.38h-6v2.18Zm-4.937,2.438-.4,1.341v5.46h2.9v-6.8Zm-15.443,4.64h0v2.161h4.725a5.2,5.2,0,0,0,1.91-.339,4.1,4.1,0,0,0,1.469-1,4.4,4.4,0,0,0,.947-1.618,6.634,6.634,0,0,0,.33-2.161v-1.2a6.366,6.366,0,0,0-.529-2.682,4.135,4.135,0,0,0-1.521-1.777,4.3,4.3,0,0,0-2.391-.64h-4.215l-.8,3.6a4.249,4.249,0,0,0,.051,1.87,2.282,2.282,0,0,0,1.01,1.341,4.214,4.214,0,0,0,2.24.529l.459-1.8a1.76,1.76,0,0,1-1.1-.561,1.49,1.49,0,0,1-.119-1.12l.363-1.68h1.438a2.1,2.1,0,0,1,1.26.361,2.006,2.006,0,0,1,.729.988,4.163,4.163,0,0,1,.234,1.429v1.481a3.829,3.829,0,0,1-.164,1.178,2.331,2.331,0,0,1-.48.891,2.063,2.063,0,0,1-.768.561,2.6,2.6,0,0,1-1.027.189Zm-32.875-7.078a1.392,1.392,0,0,1,.988.33,1.466,1.466,0,0,1,.348,1.107v7.8h2.9v-7.661a4.558,4.558,0,0,0-.449-2.179,2.766,2.766,0,0,0-1.23-1.2,4.017,4.017,0,0,0-1.783-.38h-6v2.18Zm-4.943,2.438-.4,1.341v5.46h2.9v-6.8Zm75.859-4.618h0l.221,2.338v4.883l2.879-.5.023-1.257v-3.123l-.242-2.338Zm-54.818,0h0l.221,2.338v4.883l2.881-.5.018-1.257v-3.123l-.238-2.338Zm10.295-38.026a.948.948,0,0,0-.68.291l-4.318,4.313a.983.983,0,0,0,0,1.38l13.576,13.571a4.288,4.288,0,0,0,2.836,1.385,4.466,4.466,0,0,0,2.809-1.332h.027l32.4-32.576a1.046,1.046,0,0,0-.027-1.38l-4.266-4.389a.917.917,0,0,0-.678-.291.876.876,0,0,0-.68.291l-29.568,29.788-10.762-10.761A.955.955,0,0,0-17509.492-12089.632Zm53.424,47.086h0l-.734-6.879h2.756a1.4,1.4,0,0,1,.834.251,1.661,1.661,0,0,1,.539.679,2.564,2.564,0,0,1,.189,1.05v.6a7.92,7.92,0,0,1-.061,1.5,4.365,4.365,0,0,1-.328,1.151,2.5,2.5,0,0,1-.652.838,3,3,0,0,1-1.051.543,7.962,7.962,0,0,1-1.49.269Z" transform="translate(17690.188 12439.188)" fill="#ffb300"/>
  </g>
</svg>
