
<svg xmlns="http://www.w3.org/2000/svg" width="25" height="25" viewBox="0 0 35.392 35.392">
  <g id="Group_462" data-name="Group 462" transform="translate(0.838 8.265)">
    <g id="Path_5473" data-name="Path 5473" transform="translate(-0.838 -8.265)" fill="#ffb300">
      <path d="M 17.69580078125 34.6416015625 C 13.16941070556641 34.6416015625 8.91395092010498 32.87892913818359 5.713310718536377 29.67829132080078 C 2.512670755386353 26.47765159606934 0.7500007748603821 22.22219085693359 0.7500007748603821 17.69580078125 C 0.7500007748603821 13.16941070556641 2.512670755386353 8.91395092010498 5.713310718536377 5.713310718536377 C 8.91395092010498 2.512670755386353 13.16941070556641 0.7500007748603821 17.69580078125 0.7500007748603821 C 22.22219085693359 0.7500007748603821 26.47765159606934 2.512670755386353 29.67829132080078 5.713310718536377 C 32.87892913818359 8.91395092010498 34.6416015625 13.16941070556641 34.6416015625 17.69580078125 C 34.6416015625 22.22219085693359 32.87892913818359 26.47765159606934 29.67829132080078 29.67829132080078 C 26.47765159606934 32.87892913818359 22.22219085693359 34.6416015625 17.69580078125 34.6416015625 Z" stroke="none"/>
      <path d="M 17.69580078125 1.5 C 13.3697509765625 1.5 9.302619934082031 3.184661865234375 6.243640899658203 6.243640899658203 C 3.184661865234375 9.302619934082031 1.5 13.3697509765625 1.5 17.69580078125 C 1.5 22.0218505859375 3.184661865234375 26.08898162841797 6.243640899658203 29.1479606628418 C 9.302619934082031 32.20693969726562 13.3697509765625 33.8916015625 17.69580078125 33.8916015625 C 22.0218505859375 33.8916015625 26.08898162841797 32.20693969726562 29.1479606628418 29.1479606628418 C 32.20693969726562 26.08898162841797 33.8916015625 22.0218505859375 33.8916015625 17.69580078125 C 33.8916015625 13.3697509765625 32.20693969726562 9.302619934082031 29.1479606628418 6.243640899658203 C 26.08898162841797 3.184661865234375 22.0218505859375 1.5 17.69580078125 1.5 M 17.69580078125 0 C 27.46892166137695 0 35.3916015625 7.922679901123047 35.3916015625 17.69580078125 C 35.3916015625 27.46892166137695 27.46892166137695 35.3916015625 17.69580078125 35.3916015625 C 7.922679901123047 35.3916015625 0 27.46892166137695 0 17.69580078125 C 0 7.922679901123047 7.922679901123047 0 17.69580078125 0 Z" stroke="none" fill="#191919"/>
    </g>
    <path id="Path_6814" data-name="Path 6814" d="M3438.464,2671.987h-8.1a3.442,3.442,0,0,0-3.438,3.438v3.11h-.522a.627.627,0,1,0,0,1.255h.522v7.292a.627.627,0,1,0,1.254,0V2685.7h12.468v1.385a.627.627,0,1,0,1.254,0v-7.292h.522a.627.627,0,1,0,0-1.255h-.522v-3.11A3.442,3.442,0,0,0,3438.464,2671.987Zm-10.285,12.454v-2.2h2.9a.627.627,0,0,0,0-1.255h-2.9v-5.567a2.186,2.186,0,0,1,2.184-2.183h8.1a2.185,2.185,0,0,1,2.183,2.183v5.567h-2.9a.627.627,0,0,0,0,1.255h2.9v2.2Z" transform="translate(-3417.556 -2670.417)" fill="#191919" stroke="#191919" stroke-width="0.5"/>
  </g>
</svg>
