
<svg xmlns="http://www.w3.org/2000/svg" width="21.777" height="16.333" viewBox="0 0 21.777 16.333">
  <g id="credit-card-2-back" transform="translate(0 -4.5)">
    <path id="Path_487" data-name="Path 487" d="M19.055,5.861H2.722A1.361,1.361,0,0,0,1.361,7.222V18.111a1.361,1.361,0,0,0,1.361,1.361H19.055a1.361,1.361,0,0,0,1.361-1.361V7.222A1.361,1.361,0,0,0,19.055,5.861ZM2.722,4.5A2.722,2.722,0,0,0,0,7.222V18.111a2.722,2.722,0,0,0,2.722,2.722H19.055a2.722,2.722,0,0,0,2.722-2.722V7.222A2.722,2.722,0,0,0,19.055,4.5Z" transform="translate(0)" fill="#fff" fill-rule="evenodd"/>
    <path id="Path_488" data-name="Path 488" d="M15.861,11.931a.681.681,0,0,1,.681-.681h2.722a.681.681,0,0,1,.681.681v1.361a.681.681,0,0,1-.681.681H16.541a.681.681,0,0,1-.681-.681ZM2.25,16.694H21.305v2.722H2.25Z" transform="translate(-0.889 -2.667)" fill="#fff"/>
  </g>
</svg>
