
<svg xmlns="http://www.w3.org/2000/svg" width="59.435" height="11.744" viewBox="0 0 59.435 11.744">
  <g id="Group_2889" data-name="Group 2889" transform="translate(-87.694 -1029.565)">
    <g id="Group_2888" data-name="Group 2888" transform="translate(87.694 1029.565)">
      <g id="Group_2662" data-name="Group 2662" transform="translate(15.679 1.778)">
        <path id="Path_5291" data-name="Path 5291" d="M329.076,158.372h-2.339v-8.188h2.339Z" transform="translate(-326.737 -150.184)" fill="#000"/>
        <path id="Path_5292" data-name="Path 5292" d="M365.474,156.278a1.912,1.912,0,0,1-2.141,2.094h-3.509V156.5h3.006c.2,0,.3-.07.3-.281s-.152-.292-.526-.6l-1.766-1.427a2.658,2.658,0,0,1-1.158-2.094c0-1.31.76-1.918,2.246-1.918h3.4v1.871h-2.983c-.222,0-.316.07-.316.281,0,.187.164.339.526.6l1.755,1.251A2.519,2.519,0,0,1,365.474,156.278Z" transform="translate(-356.304 -150.184)" fill="#000"/>
        <path id="Path_5293" data-name="Path 5293" d="M432.446,158.372H430.1l-.4-1.673c-.2-.854-.327-1.029-.982-1.041h-.339v2.714h-2.339v-8.188h3.614c1.766,0,2.573.772,2.573,2.538a1.956,1.956,0,0,1-1.263,2.094c.561.3.842.866,1.088,1.883Zm-3.626-4.421c.866,0,1.064-.269,1.064-1.006s-.2-1.006-1.064-1.006h-.444v2.012Z" transform="translate(-415.85 -150.184)" fill="#000"/>
      </g>
      <g id="Group_2663" data-name="Group 2663" transform="translate(33.292 1.778)">
        <path id="Path_5294" data-name="Path 5294" d="M327.187,242.858h-2.41v7.322H323.7v-7.322H321.28v-.865h5.907Z" transform="translate(-321.28 -241.993)" fill="#000"/>
        <path id="Path_5295" data-name="Path 5295" d="M365.762,242.858v2.491h3.626v.807h-3.626v1.755c0,.971.421,1.4,1.38,1.4h2.725v.866h-2.889c-1.708,0-2.293-.562-2.293-2.175v-6.012h5.182v.865Z" transform="translate(-357.75 -241.993)" fill="#000"/>
        <path id="Path_5296" data-name="Path 5296" d="M404.265,244.379v3.427c0,1.064.5,1.509,1.731,1.509h2.339v.866H405.8c-1.86,0-2.608-.643-2.608-2.222v-3.731c0-1.591.749-2.234,2.608-2.234h2.538v.865H406C404.768,242.858,404.265,243.315,404.265,244.379Z" transform="translate(-390.1 -241.993)" fill="#000"/>
        <path id="Path_5297" data-name="Path 5297" d="M450.621,241.993v8.188h-1.076v-3.825h-4.363v3.825h-1.076v-8.188h1.076v3.521h4.363v-3.521Z" transform="translate(-424.478 -241.993)" fill="#000"/>
      </g>
      <g id="Group_2664" data-name="Group 2664" transform="translate(0 0)">
        <path id="Path_5298" data-name="Path 5298" d="M212.509,160.62h-2.315v1.912h2.315a.671.671,0,0,1,.7-.521h2.814a5.717,5.717,0,0,0-.444-.9h-2.371A.748.748,0,0,1,212.509,160.62Z" transform="translate(-204.103 -158.162)" fill="#000"/>
        <path id="Path_5299" data-name="Path 5299" d="M210.244,121.771h2.266a.671.671,0,0,1,.7-.521h.98a6.314,6.314,0,0,0-3.947-1.366h-.05v1.886Z" transform="translate(-204.103 -119.884)" fill="#000"/>
        <path id="Path_5300" data-name="Path 5300" d="M212.509,201.769h-2.315v1.887h2.315a.671.671,0,0,1,.7-.521h3.173q.017-.215.017-.435t-.018-.445h-3.172A.748.748,0,0,1,212.509,201.769Z" transform="translate(-204.103 -196.828)" fill="#000"/>
        <path id="Path_5301" data-name="Path 5301" d="M214.235,283.73h-1.024a.748.748,0,0,1-.7-.486h-2.315v1.886h.05A6.312,6.312,0,0,0,214.235,283.73Z" transform="translate(-204.103 -273.387)" fill="#000"/>
        <path id="Path_5302" data-name="Path 5302" d="M212.509,242.507h-2.315v1.887h2.315a.671.671,0,0,1,.7-.521H215.6a5.721,5.721,0,0,0,.427-.88h-2.818A.748.748,0,0,1,212.509,242.507Z" transform="translate(-204.103 -235.108)" fill="#000"/>
        <path id="Path_5303" data-name="Path 5303" d="M113.107,184.756h2.241v-.571h-2.241a.671.671,0,0,0-.7-.521h-2.79a5.612,5.612,0,0,0-.358,1.578h3.147A.748.748,0,0,0,113.107,184.756Z" transform="translate(-109.257 -179.816)" fill="#000"/>
        <path id="Path_5304" data-name="Path 5304" d="M210.219,192.305h-.025v.571h.025Z" transform="translate(-204.103 -187.936)" fill="#000"/>
        <path id="Path_5305" data-name="Path 5305" d="M113.1,225.494h2.241v-.571H113.1a.671.671,0,0,0-.7-.521h-3.148a5.611,5.611,0,0,0,.355,1.578h2.794A.748.748,0,0,0,113.1,225.494Z" transform="translate(-109.246 -218.096)" fill="#000"/>
        <path id="Path_5306" data-name="Path 5306" d="M210.243,233.614h-.025v-.571h-.025v.571h.05Z" transform="translate(-204.103 -226.215)" fill="#000"/>
        <path id="Path_5307" data-name="Path 5307" d="M125.263,266.231H127.5v-.571h-2.241a.671.671,0,0,0-.7-.521h-2.367a5.97,5.97,0,0,0,1.368,1.578h1A.748.748,0,0,0,125.263,266.231Z" transform="translate(-121.413 -256.375)" fill="#000"/>
        <path id="Path_5308" data-name="Path 5308" d="M210.243,273.78h-.05v.571h.025v-.571Z" transform="translate(-204.103 -264.495)" fill="#000"/>
        <path id="Path_5309" data-name="Path 5309" d="M125.591,143.607h2.241v-.571h-2.241a.671.671,0,0,0-.7-.521h-.955a5.979,5.979,0,0,0-1.391,1.578h2.346A.748.748,0,0,0,125.591,143.607Z" transform="translate(-121.741 -141.149)" fill="#000"/>
        <path id="Path_5310" data-name="Path 5310" d="M210.219,151.156h-.025v.571h.025Z" transform="translate(-204.103 -149.27)" fill="#000"/>
        <rect id="Rectangle_1022" data-name="Rectangle 1022" width="0.025" height="0.571" transform="translate(6.116 4.37)" fill="#000"/>
        <rect id="Rectangle_1023" data-name="Rectangle 1023" width="0.025" height="0.571" transform="translate(6.116 6.828)" fill="#000"/>
        <rect id="Rectangle_1024" data-name="Rectangle 1024" width="0.025" height="0.571" transform="translate(6.116 9.286)" fill="#000"/>
        <rect id="Rectangle_1025" data-name="Rectangle 1025" width="0.025" height="0.571" transform="translate(6.116 1.887)" fill="#000"/>
      </g>
    </g>
  </g>
</svg>
