<svg xmlns="http://www.w3.org/2000/svg" width="90" height="90" viewBox="0 0 54.3 27.866">
  <g id="Group_2664" data-name="Group 2664" transform="translate(0 0.001)">
    <g id="Group_2662" data-name="Group 2662" transform="translate(31.138 4.337)">
      <path id="Path_5291" data-name="Path 5291" d="M330,161.61h-3.265V150.184H330Z" transform="translate(-326.737 -150.184)" fill="#fff"/>
      <path id="Path_5292" data-name="Path 5292" d="M367.764,158.688a2.669,2.669,0,0,1-2.987,2.922h-4.9V159h4.2c.278,0,.424-.1.424-.392,0-.277-.212-.408-.735-.832l-2.465-1.992a3.709,3.709,0,0,1-1.616-2.922c0-1.828,1.061-2.677,3.134-2.677h4.75V152.8h-4.162c-.31,0-.441.1-.441.392,0,.261.229.473.735.832l2.449,1.747A3.515,3.515,0,0,1,367.764,158.688Z" transform="translate(-354.967 -150.184)" fill="#fff"/>
      <path id="Path_5293" data-name="Path 5293" d="M434.982,161.61H431.7l-.555-2.334c-.277-1.192-.457-1.436-1.371-1.453H429.3v3.787h-3.265V150.184h5.044c2.465,0,3.591,1.077,3.591,3.542a2.73,2.73,0,0,1-1.763,2.922c.783.424,1.175,1.208,1.518,2.628Zm-5.06-6.17c1.208,0,1.485-.376,1.485-1.4s-.277-1.4-1.485-1.4h-.62v2.808Z" transform="translate(-411.82 -150.184)" fill="#fff"/>
    </g>
    <g id="Group_2663" data-name="Group 2663" transform="translate(30.356 17.482)">
      <path id="Path_5294" data-name="Path 5294" d="M326.572,242.768h-2.159v6.56h-.964v-6.56H321.28v-.775h5.292Z" transform="translate(-321.28 -241.993)" fill="#fff"/>
      <path id="Path_5295" data-name="Path 5295" d="M365.65,242.768V245H368.9v.723H365.65V247.3c0,.87.377,1.257,1.237,1.257h2.442v.776H366.74c-1.53,0-2.054-.5-2.054-1.949v-5.387h4.642v.775Z" transform="translate(-358.472 -241.993)" fill="#fff"/>
      <path id="Path_5296" data-name="Path 5296" d="M404.153,244.131V247.2c0,.954.451,1.352,1.551,1.352h2.1v.776h-2.274c-1.666,0-2.337-.576-2.337-1.991v-3.343c0-1.425.671-2,2.337-2H407.8v.775h-2.1C404.6,242.768,404.153,243.177,404.153,244.131Z" transform="translate(-391.462 -241.993)" fill="#fff"/>
      <path id="Path_5297" data-name="Path 5297" d="M449.943,241.993v7.336h-.964V245.9H445.07v3.427h-.964v-7.336h.964v3.154h3.909v-3.154Z" transform="translate(-426.521 -241.993)" fill="#fff"/>
    </g>
    <path id="Path_5298" data-name="Path 5298" d="M215.688,160.62h-5.494v4.536h5.493a1.592,1.592,0,0,1,1.666-1.237h6.678a13.579,13.579,0,0,0-1.053-2.146h-5.625A1.774,1.774,0,0,1,215.688,160.62Z" transform="translate(-195.742 -154.789)" fill="#fff"/>
    <path id="Path_5299" data-name="Path 5299" d="M210.312,124.361h5.376a1.592,1.592,0,0,1,1.666-1.237h2.325a14.982,14.982,0,0,0-9.366-3.24l-.118,0v4.475Z" transform="translate(-195.742 -119.885)" fill="#fff"/>
    <path id="Path_5300" data-name="Path 5300" d="M215.688,201.769h-5.494v4.478h5.493a1.592,1.592,0,0,1,1.666-1.237h7.529q.039-.511.04-1.031t-.042-1.056h-7.527A1.774,1.774,0,0,1,215.688,201.769Z" transform="translate(-195.742 -190.046)" fill="#fff"/>
    <path id="Path_5301" data-name="Path 5301" d="M219.783,284.4h-2.429a1.774,1.774,0,0,1-1.665-1.153h-5.494v4.475l.118,0A14.977,14.977,0,0,0,219.783,284.4Z" transform="translate(-195.742 -259.856)" fill="#fff"/>
    <path id="Path_5302" data-name="Path 5302" d="M215.688,242.507h-5.494v4.477h5.493a1.593,1.593,0,0,1,1.666-1.237h5.675a13.564,13.564,0,0,0,1.012-2.087h-6.688A1.774,1.774,0,0,1,215.688,242.507Z" transform="translate(-195.742 -224.952)" fill="#fff"/>
    <path id="Path_5303" data-name="Path 5303" d="M118.392,186.256h5.317V184.9h-5.317a1.593,1.593,0,0,0-1.666-1.237h-6.619a13.317,13.317,0,0,0-.849,3.745h7.468A1.774,1.774,0,0,0,118.392,186.256Z" transform="translate(-109.256 -174.533)" fill="#fff"/>
    <path id="Path_5304" data-name="Path 5304" d="M210.253,192.305h-.059v1.355h.059Z" transform="translate(-195.741 -181.938)" fill="#fff"/>
    <path id="Path_5305" data-name="Path 5305" d="M118.381,226.994H123.7v-1.355h-5.317a1.592,1.592,0,0,0-1.666-1.237h-7.47a13.315,13.315,0,0,0,.841,3.745h6.629A1.775,1.775,0,0,0,118.381,226.994Z" transform="translate(-109.246 -209.439)" fill="#fff"/>
    <path id="Path_5306" data-name="Path 5306" d="M210.312,234.4h-.059v-1.355h-.059V234.4h.118Z" transform="translate(-195.741 -216.843)" fill="#fff"/>
    <path id="Path_5307" data-name="Path 5307" d="M129.476,267.731h5.317v-1.355h-5.317a1.593,1.593,0,0,0-1.666-1.237h-5.616a14.165,14.165,0,0,0,3.246,3.745h2.37A1.774,1.774,0,0,0,129.476,267.731Z" transform="translate(-120.34 -244.344)" fill="#fff"/>
    <path id="Path_5308" data-name="Path 5308" d="M210.312,273.78h-.118v1.355h.059V273.78Z" transform="translate(-195.741 -251.748)" fill="#fff"/>
    <path id="Path_5309" data-name="Path 5309" d="M129.775,145.107h5.317v-1.355h-5.317a1.592,1.592,0,0,0-1.666-1.237h-2.266a14.186,14.186,0,0,0-3.3,3.745h5.566A1.774,1.774,0,0,0,129.775,145.107Z" transform="translate(-120.639 -139.276)" fill="#fff"/>
    <path id="Path_5310" data-name="Path 5310" d="M210.253,151.156h-.059v1.355h.059Z" transform="translate(-195.741 -146.68)" fill="#fff"/>
    <rect id="Rectangle_1022" data-name="Rectangle 1022" width="0.059" height="1.355" transform="translate(14.511 10.368)" fill="#fff"/>
    <rect id="Rectangle_1023" data-name="Rectangle 1023" width="0.059" height="1.355" transform="translate(14.511 16.2)" fill="#fff"/>
    <rect id="Rectangle_1024" data-name="Rectangle 1024" width="0.059" height="1.355" transform="translate(14.511 22.033)" fill="#fff"/>
    <rect id="Rectangle_1025" data-name="Rectangle 1025" width="0.059" height="1.355" transform="translate(14.511 4.477)" fill="#fff"/>
  </g>
</svg>