
<svg xmlns="http://www.w3.org/2000/svg" width="13.956" height="13.084" viewBox="0 0 13.956 13.084">
  <g id="map" transform="translate(0 -1.125)">
    <path id="Path_6861" data-name="Path 6861" d="M13.8,1.223a.436.436,0,0,1,.16.338V12.9a.436.436,0,0,1-.351.428L9.244,14.2a.438.438,0,0,1-.171,0L4.8,13.345.521,14.2A.436.436,0,0,1,0,13.773V2.433a.436.436,0,0,1,.351-.428l4.361-.872a.436.436,0,0,1,.171,0l4.276.855,4.276-.855a.436.436,0,0,1,.362.09ZM8.723,2.791l-3.489-.7v10.45l3.489.7Zm.872,10.45,3.489-.7V2.093l-3.489.7Zm-5.234-.7V2.093l-3.489.7v10.45Z" fill-rule="evenodd"/>
  </g>
</svg>
