
<svg xmlns="http://www.w3.org/2000/svg" width="15.05" height="12.9" viewBox="0 0 15.05 12.9">
  <g id="settings-adjust" transform="translate(-2.25 -4.5)">
    <path id="Path_6862" data-name="Path 6862" d="M17.3,6.65H15.1a2.688,2.688,0,0,0-5.268,0H2.25V7.725H9.828a2.688,2.688,0,0,0,5.268,0h2.2ZM12.462,8.8a1.612,1.612,0,1,1,1.612-1.612A1.584,1.584,0,0,1,12.462,8.8Z"/>
    <path id="Path_6863" data-name="Path 6863" d="M2.25,23.475h2.2a2.688,2.688,0,0,0,5.268,0H17.3V22.4H9.721a2.688,2.688,0,0,0-5.268,0H2.25Zm4.837-2.15a1.612,1.612,0,1,1-1.612,1.612A1.584,1.584,0,0,1,7.087,21.325Z" transform="translate(0 -8.225)"/>
  </g>
</svg>
