
<svg id="qr-code" xmlns="http://www.w3.org/2000/svg" width="61.169" height="61.169" viewBox="0 0 61.169 61.169">
  <path id="Path_5437" data-name="Path 5437" d="M27,33.619V29.25h4.369v4.369Z" transform="translate(21.062 23.181)" fill="#091d31"/>
  <path id="Path_5438" data-name="Path 5438" d="M20.25,29.119V24.75h4.369v4.369Z" transform="translate(14.704 18.942)" fill="#091d31"/>
  <path id="Path_5439" data-name="Path 5439" d="M20.25,37.988h8.738V33.619H24.619V29.25H20.25Z" transform="translate(14.704 23.181)" fill="#091d31"/>
  <path id="Path_5440" data-name="Path 5440" d="M29.25,33.488V24.75h4.369v8.738Z" transform="translate(23.181 18.942)" fill="#091d31"/>
  <path id="Path_5441" data-name="Path 5441" d="M33.619,29.25h4.369v8.738H29.25V33.619h4.369Z" transform="translate(23.181 23.181)" fill="#091d31"/>
  <path id="Path_5442" data-name="Path 5442" d="M29.25,24.619V20.25h8.738v8.738H33.619V24.619Z" transform="translate(23.181 14.704)" fill="#091d31"/>
  <path id="Path_5443" data-name="Path 5443" d="M31.238,22.5H26.869v8.738H22.5v4.369h8.738Z" transform="translate(16.823 16.823)" fill="#091d31"/>
  <path id="Path_5444" data-name="Path 5444" d="M20.25,24.619V20.25h8.738v4.369Z" transform="translate(14.704 14.704)" fill="#091d31"/>
  <path id="Path_5445" data-name="Path 5445" d="M6.75,24.75h8.738v8.738H6.75Z" transform="translate(1.988 18.942)" fill="#091d31"/>
  <path id="Path_5446" data-name="Path 5446" d="M28.465,46.465H2.25V20.25H28.465ZM6.619,42.1H24.1V24.619H6.619Z" transform="translate(-2.25 14.704)" fill="#091d31"/>
  <path id="Path_5447" data-name="Path 5447" d="M24.75,6.75h8.738v8.738H24.75Z" transform="translate(18.942 1.988)" fill="#091d31"/>
  <path id="Path_5448" data-name="Path 5448" d="M46.465,28.465H20.25V2.25H46.465ZM24.619,24.1H42.1V6.619H24.619Z" transform="translate(14.704 -2.25)" fill="#091d31"/>
  <path id="Path_5449" data-name="Path 5449" d="M6.75,6.75h8.738v8.738H6.75Z" transform="translate(1.988 1.988)" fill="#091d31"/>
  <path id="Path_5450" data-name="Path 5450" d="M28.465,28.465H2.25V2.25H28.465ZM6.619,24.1H24.1V6.619H6.619Z" transform="translate(-2.25 -2.25)" fill="#091d31"/>
</svg>
