
<svg xmlns="http://www.w3.org/2000/svg" width="195" height="195" viewBox="0 0 195 195">
  <g id="Group_3242" data-name="Group 3242" transform="translate(-114 -150)">
    <g id="Group_3161" data-name="Group 3161" transform="translate(114 150)">
      <g id="Path_6882" data-name="Path 6882" fill="#091d31">
        <path d="M 97.5 194 C 90.95195007324219 194 84.40830230712891 193.3403778076172 78.05082702636719 192.0394439697266 C 71.85545349121094 190.7716979980469 65.76145172119141 188.8800048828125 59.93814849853516 186.4169769287109 C 54.2203483581543 183.9985198974609 48.70544815063477 181.005126953125 43.54662322998047 177.5198974609375 C 38.43657684326172 174.067626953125 33.63127517700195 170.1028747558594 29.26420021057129 165.7357940673828 C 24.89712524414062 161.3687286376953 20.93237495422363 156.5634307861328 17.48010063171387 151.453369140625 C 13.99487495422363 146.2945709228516 11.00147533416748 140.7796478271484 8.583049774169922 135.0618438720703 C 6.119999885559082 129.2385559082031 4.228324890136719 123.1445770263672 2.96055006980896 116.9491729736328 C 1.659625053405762 110.5916976928711 1 104.0480499267578 1 97.5 C 1 90.95195007324219 1.659625053405762 84.40830230712891 2.96055006980896 78.05082702636719 C 4.228324890136719 71.85545349121094 6.119999885559082 65.76145172119141 8.583049774169922 59.93814849853516 C 11.00147533416748 54.2203483581543 13.99487495422363 48.70544815063477 17.48010063171387 43.54662322998047 C 20.93237495422363 38.43657684326172 24.89712524414062 33.63127517700195 29.26420021057129 29.26420021057129 C 33.63127517700195 24.89712524414062 38.43657684326172 20.93237495422363 43.54662322998047 17.48010063171387 C 48.70544815063477 13.99487495422363 54.2203483581543 11.00147533416748 59.93814849853516 8.583049774169922 C 65.76145172119141 6.119999885559082 71.85545349121094 4.228324890136719 78.05082702636719 2.96055006980896 C 84.40830230712891 1.659625053405762 90.95195007324219 1 97.5 1 C 104.0480499267578 1 110.5916976928711 1.659625053405762 116.9491729736328 2.96055006980896 C 123.1445770263672 4.228324890136719 129.2385559082031 6.119999885559082 135.0618438720703 8.583049774169922 C 140.7796478271484 11.00147533416748 146.2945709228516 13.99487495422363 151.453369140625 17.48010063171387 C 156.5634307861328 20.93237495422363 161.3687286376953 24.89712524414062 165.7357940673828 29.26420021057129 C 170.1028747558594 33.63127517700195 174.067626953125 38.43657684326172 177.5198974609375 43.54662322998047 C 181.005126953125 48.70544815063477 183.9985198974609 54.2203483581543 186.4169769287109 59.93814849853516 C 188.8800048828125 65.76145172119141 190.7716979980469 71.85545349121094 192.0394439697266 78.05082702636719 C 193.3403778076172 84.40830230712891 194 90.95195007324219 194 97.5 C 194 104.0480499267578 193.3403778076172 110.5916976928711 192.0394439697266 116.9491729736328 C 190.7716979980469 123.1445770263672 188.8800048828125 129.2385559082031 186.4169769287109 135.0618438720703 C 183.9985198974609 140.7796478271484 181.005126953125 146.2945709228516 177.5198974609375 151.453369140625 C 174.067626953125 156.5634307861328 170.1028747558594 161.3687438964844 165.7357940673828 165.7357940673828 C 161.3687438964844 170.1028747558594 156.5634307861328 174.067626953125 151.453369140625 177.5198974609375 C 146.2945709228516 181.005126953125 140.7796478271484 183.9985198974609 135.0618438720703 186.4169769287109 C 129.2385559082031 188.8800048828125 123.1445770263672 190.7716979980469 116.9491729736328 192.0394439697266 C 110.5916976928711 193.3403778076172 104.0480499267578 194 97.5 194 Z" stroke="none"/>
        <path d="M 97.5 2 C 91.01913452148438 2 84.54294586181641 2.652786254882812 78.25128936767578 3.940261840820312 C 72.12058258056641 5.194793701171875 66.0902099609375 7.06671142578125 60.32771301269531 9.504058837890625 C 54.66937255859375 11.89730834960938 49.21173095703125 14.85963439941406 44.1064453125 18.3087158203125 C 39.04910278320312 21.72537231445312 34.29336547851562 25.64923095703125 29.97128295898438 29.97128295898438 C 25.64923095703125 34.29336547851562 21.72537231445312 39.04910278320312 18.3087158203125 44.1064453125 C 14.85963439941406 49.21173095703125 11.89730834960938 54.66937255859375 9.504058837890625 60.32771301269531 C 7.06671142578125 66.0902099609375 5.194793701171875 72.12058258056641 3.940261840820312 78.25128936767578 C 2.652786254882812 84.54294586181641 2 91.01913452148438 2 97.5 C 2 103.9808654785156 2.652786254882812 110.4570541381836 3.940261840820312 116.7487106323242 C 5.194793701171875 122.8794174194336 7.06671142578125 128.9097900390625 9.504058837890625 134.6723175048828 C 11.89730834960938 140.3306274414062 14.85963439941406 145.7882690429688 18.3087158203125 150.8935852050781 C 21.72537231445312 155.9508972167969 25.64923095703125 160.7066345214844 29.97128295898438 165.0287170410156 C 34.29336547851562 169.3507690429688 39.04910278320312 173.2746276855469 44.1064453125 176.6912841796875 C 49.21173095703125 180.1403656005859 54.66937255859375 183.1026916503906 60.32771301269531 185.4959716796875 C 66.0902099609375 187.9332885742188 72.12058258056641 189.8052062988281 78.25128936767578 191.0597686767578 C 84.54294586181641 192.3472137451172 91.01913452148438 193 97.5 193 C 103.9808654785156 193 110.4570541381836 192.3472137451172 116.7487106323242 191.0597686767578 C 122.8794174194336 189.8052062988281 128.9097900390625 187.9332885742188 134.6723175048828 185.4959716796875 C 140.3306274414062 183.1026916503906 145.7882690429688 180.1403656005859 150.8935852050781 176.6912841796875 C 155.9508972167969 173.2746276855469 160.7066345214844 169.3507690429688 165.0287170410156 165.0287170410156 C 169.3507690429688 160.7066345214844 173.2746276855469 155.9508972167969 176.6912841796875 150.8935852050781 C 180.1403656005859 145.7882690429688 183.1026916503906 140.3306274414062 185.4959716796875 134.6723175048828 C 187.9332885742188 128.9097900390625 189.8052062988281 122.8794174194336 191.0597686767578 116.7487106323242 C 192.3472137451172 110.4570541381836 193 103.9808654785156 193 97.5 C 193 91.01913452148438 192.3472137451172 84.54294586181641 191.0597686767578 78.25128936767578 C 189.8052062988281 72.12058258056641 187.9332885742188 66.0902099609375 185.4959716796875 60.32771301269531 C 183.1026916503906 54.66937255859375 180.1403656005859 49.21173095703125 176.6912841796875 44.1064453125 C 173.2746276855469 39.04910278320312 169.3507690429688 34.29336547851562 165.0287170410156 29.97128295898438 C 160.7066345214844 25.64923095703125 155.9508972167969 21.72537231445312 150.8935852050781 18.3087158203125 C 145.7882690429688 14.85963439941406 140.3306274414062 11.89730834960938 134.6723175048828 9.504058837890625 C 128.9097900390625 7.06671142578125 122.8794174194336 5.194793701171875 116.7487106323242 3.940261840820312 C 110.4570541381836 2.652786254882812 103.9808654785156 2 97.5 2 M 97.5 0 C 151.3477935791016 0 195 43.65223693847656 195 97.5 C 195 151.3477935791016 151.3477935791016 195 97.5 195 C 43.65223693847656 195 0 151.3477935791016 0 97.5 C 0 43.65223693847656 43.65223693847656 0 97.5 0 Z" stroke="none" fill="#ffb300"/>
      </g>
      <circle id="Ellipse_401" data-name="Ellipse 401" cx="81.5" cy="81.5" r="81.5" transform="translate(16 16)" fill="#ffb300"/>
      <g id="qr-code" transform="translate(69.73 54.006)">
        <path id="Path_5437" data-name="Path 5437" d="M27,33.422V29.25h4.172v4.172Z" transform="translate(16.025 16.639)" fill="#091d31"/>
        <path id="Path_5438" data-name="Path 5438" d="M20.25,28.922V24.75h4.172v4.172Z" transform="translate(10.259 12.796)" fill="#091d31"/>
        <path id="Path_5439" data-name="Path 5439" d="M20.25,37.593h8.343V33.422H24.422V29.25H20.25Z" transform="translate(10.259 16.639)" fill="#091d31"/>
        <path id="Path_5440" data-name="Path 5440" d="M29.25,33.093V24.75h4.172v8.343Z" transform="translate(17.946 12.796)" fill="#091d31"/>
        <path id="Path_5441" data-name="Path 5441" d="M33.422,29.25h4.172v8.343H29.25V33.422h4.172Z" transform="translate(17.946 16.639)" fill="#091d31"/>
        <path id="Path_5442" data-name="Path 5442" d="M29.25,24.422V20.25h8.343v8.343H33.422V24.422Z" transform="translate(17.946 8.952)" fill="#091d31"/>
        <path id="Path_5443" data-name="Path 5443" d="M30.843,22.5H26.672v8.343H22.5v4.172h8.343Z" transform="translate(12.181 10.874)" fill="#091d31"/>
        <path id="Path_5444" data-name="Path 5444" d="M20.25,24.422V20.25h8.343v4.172Z" transform="translate(10.259 8.952)" fill="#091d31"/>
        <path id="Path_5445" data-name="Path 5445" d="M6.75,24.75h8.343v8.343H6.75Z" transform="translate(1.593 12.796)" fill="#091d31"/>
        <path id="Path_5446" data-name="Path 5446" d="M27.28,45.28H2.25V20.25H27.28ZM6.422,41.109H23.109V24.422H6.422Z" transform="translate(-2.25 8.952)" fill="#091d31"/>
        <path id="Path_5447" data-name="Path 5447" d="M24.75,6.75h8.343v8.343H24.75Z" transform="translate(14.102 1.593)" fill="#091d31"/>
        <path id="Path_5448" data-name="Path 5448" d="M45.28,27.28H20.25V2.25H45.28ZM24.422,23.109H41.109V6.422H24.422Z" transform="translate(10.259 -2.25)" fill="#091d31"/>
        <path id="Path_5449" data-name="Path 5449" d="M6.75,6.75h8.343v8.343H6.75Z" transform="translate(1.593 1.593)" fill="#091d31"/>
        <path id="Path_5450" data-name="Path 5450" d="M27.28,27.28H2.25V2.25H27.28ZM6.422,23.109H23.109V6.422H6.422Z" transform="translate(-2.25 -2.25)" fill="#091d31"/>
      </g>
    </g>
    <text id="התחל_נסיעה" data-name="התחל נסיעה" transform="translate(168 284)" fill="#091d31" font-size="18" font-family="Assistant-Bold, Assistant" font-weight="700"><tspan x="0" y="0">התחל נסיעה</tspan></text>
  </g>
</svg>
