
<svg xmlns="http://www.w3.org/2000/svg" width="23.538" height="23.538" viewBox="0 0 23.538 23.538">
  <g id="Group_2991" data-name="Group 2991" transform="translate(-136 -236)">
    <path id="Ellipse_292" data-name="Ellipse 292" d="M11.769,0A11.769,11.769,0,1,1,0,11.769,11.769,11.769,0,0,1,11.769,0Z" transform="translate(136 236)" fill="#ffb300"/>
    <path id="Path_286" data-name="Path 286" d="M23.586,13.391,22.506,12.28a.232.232,0,0,0-.172-.074h0a.223.223,0,0,0-.172.074l-7.491,7.546L11.945,17.1a.237.237,0,0,0-.344,0l-1.093,1.093a.245.245,0,0,0,0,.35l3.438,3.438a1.087,1.087,0,0,0,.718.35,1.139,1.139,0,0,0,.712-.338h.006l8.209-8.252A.262.262,0,0,0,23.586,13.391Z" transform="translate(131.045 230.929)" fill="#091d31"/>
  </g>
</svg>
